<svg version="1.2" xmlns="http://www.w3.org/2000/svg" viewBox="0 0 236 264" width="236" height="264">
	<title>contact-decor-03</title>
	<style>
		.s0 { fill: #5d3bee } 
	</style>
	<g style="opacity: .05">
		<path fill-rule="evenodd" class="s0" d="m52.3 89.4l94.5-98.1c7.4-7.6 19.4-7.6 26.8 0 7.4 7.7 7.4 20.1 0 27.8l-94.5 98.1c-7.4 7.6-19.4 7.6-26.8 0-7.4-7.7-7.4-20.1 0-27.8z"/>
		<path fill-rule="evenodd" class="s0" d="m7.3 229.3l278.3-288.9c7.4-7.6 19.4-7.6 26.8 0 7.4 7.7 7.4 20.1 0 27.8l-278.4 288.8c-7.3 7.6-19.3 7.6-26.7 0-7.4-7.7-7.4-20.1 0-27.7z"/>
		<path fill-rule="evenodd" class="s0" d="m191.2 126.3l87-90.3c7.4-7.7 19.3-7.7 26.7 0 7.4 7.6 7.4 20.1 0 27.7l-87 90.3c-7.4 7.7-19.4 7.7-26.7 0-7.4-7.6-7.4-20 0-27.7z"/>
	</g>
</svg>