<svg version="1.2" xmlns="http://www.w3.org/2000/svg" viewBox="0 0 201 202" width="201" height="202">
	<title>feedback-decor-01</title>
	<style>
		.s0 { fill: #5d3bee } 
	</style>
	<g style="opacity: .05">
		<path fill-rule="evenodd" class="s0" d="m65.7 28.3l19.1-19.9c7.4-7.6 19.4-7.6 26.7 0 7.4 7.7 7.4 20.1 0 27.7l-19.1 19.9c-7.4 7.7-19.4 7.7-26.7 0-7.4-7.6-7.4-20 0-27.7z"/>
		<path fill-rule="evenodd" class="s0" d="m-66.7 168.4l94.6-98.1c7.3-7.6 19.3-7.6 26.7 0 7.4 7.7 7.4 20.1 0 27.8l-94.5 98.1c-7.4 7.6-19.4 7.6-26.8 0-7.4-7.7-7.4-20.1 0-27.8z"/>
		<path fill-rule="evenodd" class="s0" d="m-111.7 308.3l278.3-288.9c7.4-7.6 19.4-7.6 26.8 0 7.4 7.7 7.4 20.1 0 27.8l-278.4 288.8c-7.3 7.6-19.3 7.6-26.7 0-7.4-7.7-7.4-20.1 0-27.7z"/>
		<path fill-rule="evenodd" class="s0" d="m72.2 205.3l87-90.3c7.4-7.7 19.3-7.7 26.7 0 7.4 7.6 7.4 20.1 0 27.7l-87 90.3c-7.4 7.7-19.4 7.7-26.7 0-7.4-7.6-7.4-20 0-27.7z"/>
	</g>
</svg>