<svg version="1.2" xmlns="http://www.w3.org/2000/svg" viewBox="0 0 221 169" width="221" height="169">
	<title>hero-decor-02</title>
	<style>
		.s0 { fill: #5d3bee } 
	</style>
	<g style="opacity: .1">
		<path fill-rule="evenodd" class="s0" d="m98.3 29.8l13.8-19.4c5.3-7.5 15.6-9.1 22.9-3.5 7.3 5.6 8.9 16.2 3.6 23.7l-13.8 19.5c-5.3 7.5-15.6 9-22.9 3.4-7.3-5.6-8.9-16.2-3.6-23.7z"/>
		<path fill-rule="evenodd" class="s0" d="m3.5 166.7l68-96.1c5.3-7.5 15.5-9 22.8-3.4 7.3 5.6 8.9 16.2 3.6 23.7l-68 96c-5.3 7.5-15.5 9-22.8 3.4-7.3-5.5-8.9-16.1-3.6-23.6z"/>
		<path fill-rule="evenodd" class="s0" d="m-16.9 291.9l200.4-282.7c5.3-7.5 15.5-9 22.8-3.5 7.3 5.6 8.9 16.2 3.6 23.7l-200.4 282.7c-5.3 7.5-15.5 9.1-22.8 3.5-7.3-5.6-8.9-16.2-3.6-23.7z"/>
		<path fill-rule="evenodd" class="s0" d="m126.8 180.2l62.6-88.4c5.4-7.5 15.6-9.1 22.9-3.5 7.3 5.6 8.9 16.2 3.6 23.7l-62.7 88.4c-5.3 7.5-15.5 9-22.8 3.5-7.3-5.6-8.9-16.2-3.6-23.7z"/>
	</g>
</svg>