<svg version="1.2" xmlns="http://www.w3.org/2000/svg" viewBox="0 0 568 692" width="568" height="692">
	<title>hero-decor-01</title>
	<style>
		.s0 { fill: #5d3bee } 
	</style>
	<g style="opacity: .1">
		<path fill-rule="evenodd" class="s0" d="m271.2 68.5l33.8-47.6c13-18.4 38-22.2 55.8-8.5 17.9 13.7 21.8 39.6 8.8 58l-33.7 47.6c-13 18.3-38 22.1-55.9 8.4-17.8-13.6-21.8-39.6-8.8-57.9z"/>
		<path fill-rule="evenodd" class="s0" d="m39 403.3l166.5-235c13-18.3 38.1-22.1 55.9-8.4 17.9 13.6 21.8 39.6 8.8 57.9l-166.5 235c-13 18.4-38.1 22.2-55.9 8.5-17.9-13.7-21.8-39.6-8.8-58z"/>
		<path fill-rule="evenodd" class="s0" d="m-10.8 709.8l490.3-691.8c13-18.4 38-22.2 55.9-8.5 17.9 13.7 21.8 39.6 8.8 58l-490.3 691.8c-13.1 18.4-38.1 22.2-55.9 8.5-17.9-13.6-21.8-39.6-8.8-58z"/>
		<path fill-rule="evenodd" class="s0" d="m340.9 436.4l153.3-216.3c13-18.4 38-22.2 55.9-8.5 17.8 13.7 21.8 39.6 8.8 58l-153.3 216.3c-13 18.3-38.1 22.1-55.9 8.5-17.9-13.7-21.8-39.6-8.8-58z"/>
	</g>
</svg>